<svg id="visual" viewBox="0 0 900 600" width="900" height="600" xmlns="http://www.w3.org/2000/svg" xmlns:xlink="http://www.w3.org/1999/xlink" version="1.1"><rect x="0" y="0" width="900" height="600" fill="#001220"></rect><defs><linearGradient id="grad1_0" x1="33.3%" y1="0%" x2="100%" y2="100%"><stop offset="20%" stop-color="#001220" stop-opacity="1"></stop><stop offset="80%" stop-color="#001220" stop-opacity="1"></stop></linearGradient></defs><defs><linearGradient id="grad2_0" x1="0%" y1="0%" x2="66.7%" y2="100%"><stop offset="20%" stop-color="#001220" stop-opacity="1"></stop><stop offset="80%" stop-color="#001220" stop-opacity="1"></stop></linearGradient></defs><g transform="translate(900, 0)"><path d="M0 486.7C-67.1 484.4 -134.2 482 -186.3 449.7C-238.4 417.4 -275.5 355 -301.2 301.2C-327 247.4 -341.4 202.2 -370.5 153.5C-399.5 104.7 -443.1 52.3 -486.7 0L0 0Z" fill="#FBAE3C"></path></g><g transform="translate(0, 600)"><path d="M0 -486.7C68.7 -486.2 137.5 -485.7 186.3 -449.7C235.1 -413.7 263.9 -342.3 287.8 -287.8C311.7 -233.2 330.7 -195.6 363.1 -150.4C395.4 -105.2 441.1 -52.6 486.7 0L0 0Z" fill="#FBAE3C"></path></g></svg>