<svg id="visual" viewBox="0 0 900 600" width="900" height="600" xmlns="http://www.w3.org/2000/svg" xmlns:xlink="http://www.w3.org/1999/xlink" version="1.1"><rect x="0" y="0" width="900" height="600" fill="#001220"></rect><path d="M0 369L21.5 376.2C43 383.3 86 397.7 128.8 407.5C171.7 417.3 214.3 422.7 257.2 419C300 415.3 343 402.7 385.8 400.7C428.7 398.7 471.3 407.3 514.2 413.5C557 419.7 600 423.3 642.8 421.2C685.7 419 728.3 411 771.2 402C814 393 857 383 878.5 378L900 373L900 601L878.5 601C857 601 814 601 771.2 601C728.3 601 685.7 601 642.8 601C600 601 557 601 514.2 601C471.3 601 428.7 601 385.8 601C343 601 300 601 257.2 601C214.3 601 171.7 601 128.8 601C86 601 43 601 21.5 601L0 601Z" fill="#fa7268"></path><path d="M0 475L21.5 473C43 471 86 467 128.8 467.3C171.7 467.7 214.3 472.3 257.2 470.7C300 469 343 461 385.8 450.2C428.7 439.3 471.3 425.7 514.2 416.7C557 407.7 600 403.3 642.8 411.7C685.7 420 728.3 441 771.2 442.2C814 443.3 857 424.7 878.5 415.3L900 406L900 601L878.5 601C857 601 814 601 771.2 601C728.3 601 685.7 601 642.8 601C600 601 557 601 514.2 601C471.3 601 428.7 601 385.8 601C343 601 300 601 257.2 601C214.3 601 171.7 601 128.8 601C86 601 43 601 21.5 601L0 601Z" fill="#ef5f67"></path><path d="M0 483L21.5 485.5C43 488 86 493 128.8 487.2C171.7 481.3 214.3 464.7 257.2 459.2C300 453.7 343 459.3 385.8 458.5C428.7 457.7 471.3 450.3 514.2 455.5C557 460.7 600 478.3 642.8 477.3C685.7 476.3 728.3 456.7 771.2 451.2C814 445.7 857 454.3 878.5 458.7L900 463L900 601L878.5 601C857 601 814 601 771.2 601C728.3 601 685.7 601 642.8 601C600 601 557 601 514.2 601C471.3 601 428.7 601 385.8 601C343 601 300 601 257.2 601C214.3 601 171.7 601 128.8 601C86 601 43 601 21.5 601L0 601Z" fill="#e34c67"></path><path d="M0 537L21.5 537C43 537 86 537 128.8 536.8C171.7 536.7 214.3 536.3 257.2 533.8C300 531.3 343 526.7 385.8 527.5C428.7 528.3 471.3 534.7 514.2 536.5C557 538.3 600 535.7 642.8 532.7C685.7 529.7 728.3 526.3 771.2 524.8C814 523.3 857 523.7 878.5 523.8L900 524L900 601L878.5 601C857 601 814 601 771.2 601C728.3 601 685.7 601 642.8 601C600 601 557 601 514.2 601C471.3 601 428.7 601 385.8 601C343 601 300 601 257.2 601C214.3 601 171.7 601 128.8 601C86 601 43 601 21.5 601L0 601Z" fill="#d53867"></path><path d="M0 568L21.5 563.3C43 558.7 86 549.3 128.8 544.2C171.7 539 214.3 538 257.2 542.3C300 546.7 343 556.3 385.8 561.5C428.7 566.7 471.3 567.3 514.2 566.3C557 565.3 600 562.7 642.8 558.5C685.7 554.3 728.3 548.7 771.2 551C814 553.3 857 563.7 878.5 568.8L900 574L900 601L878.5 601C857 601 814 601 771.2 601C728.3 601 685.7 601 642.8 601C600 601 557 601 514.2 601C471.3 601 428.7 601 385.8 601C343 601 300 601 257.2 601C214.3 601 171.7 601 128.8 601C86 601 43 601 21.5 601L0 601Z" fill="#c62368"></path></svg>