<svg id="visual" viewBox="0 0 900 600" width="900" height="600" xmlns="http://www.w3.org/2000/svg" xmlns:xlink="http://www.w3.org/1999/xlink" version="1.1"><rect x="0" y="0" width="900" height="600" fill="#002233"></rect><path d="M0 470L21.5 460.5C43 451 86 432 128.8 424.5C171.7 417 214.3 421 257.2 431.2C300 441.3 343 457.7 385.8 464.8C428.7 472 471.3 470 514.2 467.7C557 465.3 600 462.7 642.8 454.7C685.7 446.7 728.3 433.3 771.2 423.2C814 413 857 406 878.5 402.5L900 399L900 601L878.5 601C857 601 814 601 771.2 601C728.3 601 685.7 601 642.8 601C600 601 557 601 514.2 601C471.3 601 428.7 601 385.8 601C343 601 300 601 257.2 601C214.3 601 171.7 601 128.8 601C86 601 43 601 21.5 601L0 601Z" fill="#0066FF" stroke-linecap="round" stroke-linejoin="miter"></path></svg>